<?xml version="1.0" encoding="UTF-8" standalone="no"?>
<svg
   xmlns:dc="http://purl.org/dc/elements/1.1/"
   xmlns:cc="http://creativecommons.org/ns#"
   xmlns:rdf="http://www.w3.org/1999/02/22-rdf-syntax-ns#"
   xmlns:svg="http://www.w3.org/2000/svg"
   xmlns="http://www.w3.org/2000/svg"
   xmlns:sodipodi="http://sodipodi.sourceforge.net/DTD/sodipodi-0.dtd"
   xmlns:inkscape="http://www.inkscape.org/namespaces/inkscape"
   viewBox="0 0 288.07812 128.23141"
   height="128.23141"
   width="288.07812"
   xml:space="preserve"
   id="svg2"
   version="1.1"
   sodipodi:docname="itau-logo.svg"
   inkscape:version="0.92.2 (5c3e80d, 2017-08-06)"><sodipodi:namedview
     pagecolor="#ffffff"
     bordercolor="#666666"
     borderopacity="1"
     objecttolerance="10"
     gridtolerance="10"
     guidetolerance="10"
     inkscape:pageopacity="0"
     inkscape:pageshadow="2"
     inkscape:window-width="1600"
     inkscape:window-height="837"
     id="namedview9367"
     showgrid="false"
     fit-margin-top="0"
     fit-margin-left="0"
     fit-margin-right="0"
     fit-margin-bottom="0"
     inkscape:zoom="1.7022786"
     inkscape:cx="82.707905"
     inkscape:cy="11.824704"
     inkscape:window-x="-8"
     inkscape:window-y="-8"
     inkscape:window-maximized="1"
     inkscape:current-layer="g10" /><metadata
     id="metadata8"><rdf:RDF><cc:Work
         rdf:about=""><dc:format>image/svg+xml</dc:format><dc:type
           rdf:resource="http://purl.org/dc/dcmitype/StillImage" /><dc:title></dc:title></cc:Work></rdf:RDF></metadata><defs
     id="defs6"><clipPath
       id="clipPath7594"
       clipPathUnits="userSpaceOnUse"><path
         id="path7592"
         d="M 0,0 H 1757.48 V 2352.756 H 0 Z"
         inkscape:connector-curvature="0" /></clipPath><clipPath
       id="clipPath7616"
       clipPathUnits="userSpaceOnUse"><path
         id="path7614"
         d="M 0,0 H 1757.48 V 2352.756 H 0 Z"
         inkscape:connector-curvature="0" /></clipPath><clipPath
       id="clipPath7740"
       clipPathUnits="userSpaceOnUse"><path
         id="path7738"
         d="M 0,0 H 1757.48 V 2352.756 H 0 Z"
         inkscape:connector-curvature="0" /></clipPath><clipPath
       id="clipPath7754"
       clipPathUnits="userSpaceOnUse"><path
         id="path7752"
         d="M 0,0 H 1757.48 V 2352.756 H 0 Z"
         inkscape:connector-curvature="0" /></clipPath><clipPath
       id="clipPath13700"
       clipPathUnits="userSpaceOnUse"><path
         id="path13698"
         d="m 1224.373,2261.261 h 323.299 v 82.419 h -323.299 z"
         inkscape:connector-curvature="0" /></clipPath><clipPath
       id="clipPath13772"
       clipPathUnits="userSpaceOnUse"><path
         id="path13770"
         d="m 1224.373,2261.261 h 323.299 v 82.419 h -323.299 z"
         inkscape:connector-curvature="0" /></clipPath><clipPath
       id="clipPath13816"
       clipPathUnits="userSpaceOnUse"><path
         id="path13814"
         d="m 1224.373,2261.261 h 323.299 v 82.419 h -323.299 z"
         inkscape:connector-curvature="0" /></clipPath></defs><g
     transform="matrix(1.3333333,0,0,-1.3333333,-2162.7615,3106.0155)"
     id="g10"><g
       id="g7610"><g
         clip-path="url(#clipPath7616)"
         id="g7612"><g
           transform="translate(1309.9607,331.2992)"
           id="g7618" /></g></g><g
       id="g7734"><g
         clip-path="url(#clipPath7740)"
         id="g7736"><g
           transform="translate(1646.885,2329.5117)"
           id="g7742"><path
             id="path7744"
             style="fill:#004990;fill-opacity:1;fill-rule:nonzero;stroke:none"
             d="m 0,0 h 35.524 c 4.91,0 8.882,-3.982 8.882,-8.886 v -35.529 c 0,-4.903 -3.972,-8.876 -8.882,-8.876 H 0 c -4.912,0 -8.885,3.973 -8.885,8.876 V -8.886 C -8.885,-3.982 -4.912,0 0,0"
             inkscape:connector-curvature="0" /></g></g></g><path
       id="path7746"
       style="fill:#ffe512;fill-opacity:1;fill-rule:nonzero;stroke:none"
       d="m 1642.441,2285.102 h 4.143 v 17.768 h -4.143 z"
       inkscape:connector-curvature="0" /><g
       id="g7748"><g
         clip-path="url(#clipPath7754)"
         id="g7750"><g
           transform="translate(1665.1478,2298.8071)"
           id="g7756"><path
             id="path7758"
             style="fill:#ffe512;fill-opacity:1;fill-rule:nonzero;stroke:none"
             d="m 0,0 c -2.54,0 -4.435,-0.66 -5.464,-1.259 l 0.778,-2.618 c 0.934,0.565 2.543,1.072 3.996,1.072 2.424,0.007 2.936,-1.225 2.936,-1.849 v -0.143 c -5.371,0.023 -8.688,-1.721 -8.688,-5.164 0,-2.026 1.606,-4.071 4.569,-4.071 1.765,0 3.255,0.64 4.16,1.711 h 0.044 l 0.453,-1.384 h 3.372 v 7.876 C 6.156,-2.628 4.584,0 0,0 m 2.366,-8.79 c 0,-0.211 -0.02,-0.452 -0.069,-0.67 C 2.291,-9.488 2.264,-9.581 2.256,-9.601 2.247,-9.623 2.238,-9.646 2.229,-9.668 c -0.368,-0.868 -1.34,-1.685 -2.648,-1.685 -1.139,0 -1.924,0.59 -1.924,1.709 0,1.254 1.07,1.9 2.666,2.146 0.373,0.059 0.784,0.094 1.224,0.111 0.265,0.009 0.537,0.012 0.819,0.008 z"
             inkscape:connector-curvature="0" /></g><g
           transform="translate(1682.7485,2298.4155)"
           id="g7760"><path
             id="path7762"
             style="fill:#ffe512;fill-opacity:1;fill-rule:nonzero;stroke:none"
             d="m 0,0 v -7.805 c 0,-0.314 -0.039,-0.594 -0.139,-0.846 -0.332,-0.801 -1.149,-1.708 -2.495,-1.708 -1.691,0 -2.432,1.243 -2.432,3.321 V 0.009 H -9.11 v -7.787 c 0,-1.042 0.126,-1.928 0.377,-2.658 0.25,-0.73 0.592,-1.335 1.027,-1.808 0.435,-0.476 0.957,-0.823 1.564,-1.042 0.607,-0.219 1.279,-0.329 2.011,-0.329 0.638,0 1.202,0.078 1.695,0.234 0.492,0.154 0.917,0.342 1.273,0.562 0.357,0.217 0.656,0.455 0.897,0.712 0.241,0.255 0.431,0.483 0.566,0.685 l 0.521,-1.891 H 4.102 V 0 Z"
             inkscape:connector-curvature="0" /></g><g
           transform="translate(1650.4714,2302.8704)"
           id="g7764"><path
             id="path7766"
             style="fill:#ffe512;fill-opacity:1;fill-rule:nonzero;stroke:none"
             d="M 0,0 V -4.446 H -1.888 V -7.483 H 0 v -5.414 c 0,-1.791 0.359,-3.136 1.136,-3.954 0.666,-0.715 1.837,-1.245 3.255,-1.245 1.218,0 1.699,0.182 2.245,0.394 v 3.093 c -0.112,-0.053 -0.431,-0.116 -0.846,-0.116 -1.435,0 -1.767,0.893 -1.767,2.525 v 4.717 h 2.569 v 3.037 H 4.023 V 0 Z"
             inkscape:connector-curvature="0" /></g></g></g><g
       transform="translate(1681.2183,2302.8716)"
       id="g7768"><path
         id="path7770"
         style="fill:#ffe512;fill-opacity:1;fill-rule:nonzero;stroke:none"
         d="m 0,0 -2.497,-3.59 h 2.89 L 3.914,0 Z"
         inkscape:connector-curvature="0" /></g><text
       xml:space="preserve"
       style="font-style:normal;font-weight:normal;font-size:24px;line-height:1.25;font-family:sans-serif;letter-spacing:0px;word-spacing:0px;fill:#000000;fill-opacity:1;stroke:none;stroke-width:0.75"
       x="1619.7157"
       y="-2238.3303"
       id="text10176"
       transform="scale(1,-1)"><tspan
         sodipodi:role="line"
         id="tspan10174"
         x="1619.7157"
         y="-2238.3303"
         style="stroke-width:0.75">Logodownload.org</tspan></text>
</g></svg>